# xmcd
#
# Track frame offsets: 
#        150
#        20040
#        38877
#        57477
#        71863
#        82607
#        96419
#        110431
#        133220
#        149968
#        177768
#
# Disc length: 2518 seconds
#
# Revision: 0
# Processed by: cddbd v1.5.2PL0 Copyright (c) Steve Scherf et al.
# Submitted via: ExactAudioCopyFreeDBPlugin 1.0
#
DISCID=a609d40b
DTITLE=My Darling Clementine - Still Testifying
DYEAR=2017
DGENRE=Country
TTITLE0=The Embers and The Flame
TTITLE1=Eugene
TTITLE2=Yours Is The Cross That I Still Bear
TTITLE3=Since I Fell For You
TTITLE4=There's Nothing You Can Tell Me (That I Don't Already Know)
TTITLE5=Jolene's Story
TTITLE6=Friday Night, Tulip Hotel
TTITLE7=Just A Woman
TTITLE8=Tear Stained Smile
TTITLE9=Two Lane Texaco
TTITLE10=Shallow
EXTD=
EXTT0=
EXTT1=
EXTT2=
EXTT3=
EXTT4=
EXTT5=
EXTT6=
EXTT7=
EXTT8=
EXTT9=
EXTT10=
PLAYORDER=
